<svg width="141" height="153" viewBox="0 0 141 153" fill="none" xmlns="http://www.w3.org/2000/svg">
<path d="M82.4004 84.2898H58.5996C57.1667 84.2879 55.7931 83.7174 54.7806 82.7035C53.768 81.6897 53.1993 80.3153 53.1993 78.8824V56.4493C53.1993 55.0171 53.7683 53.6435 54.781 52.6308C55.7938 51.618 57.1673 51.049 58.5996 51.049H82.4004C83.8326 51.049 85.2062 51.618 86.219 52.6308C87.2317 53.6435 87.8007 55.0171 87.8007 56.4493V78.8824C87.8007 80.3153 87.232 81.6897 86.2194 82.7035C85.2069 83.7174 83.8333 84.2879 82.4004 84.2898Z" fill="#67BAEB"/>
<path d="M87.8007 66.9045V62.8578C87.1814 63.0588 86.5342 63.1612 85.8831 63.1609C84.583 63.1631 83.3161 62.7507 82.2664 61.9836C81.6813 61.5522 81.1856 61.011 80.8071 60.3903C80.7154 60.5313 80.6167 60.6723 80.511 60.8062C79.9445 61.527 79.2244 62.1123 78.403 62.5194C77.5287 62.9437 76.5691 63.1631 75.5972 63.1609C74.0051 63.1728 72.4689 62.575 71.3037 61.4901C71.0061 61.212 70.7368 60.905 70.5 60.5736C70.2632 60.905 69.9939 61.212 69.6963 61.4901C68.5311 62.575 66.9949 63.1728 65.4028 63.1609C64.4309 63.1631 63.4713 62.9437 62.5969 62.5194C61.7756 62.1123 61.0555 61.527 60.489 60.8062C60.3832 60.6723 60.2845 60.5313 60.1929 60.3903C59.8144 61.011 59.3187 61.5522 58.7335 61.9836C57.6839 62.7507 56.417 63.1631 55.1169 63.1609C54.4657 63.1612 53.8186 63.0588 53.1993 62.8578V66.9045C54.1253 67.206 55.1095 67.2839 56.0714 67.132C57.0333 66.98 57.9456 66.6025 58.7335 66.0303C59.3187 65.5989 59.8144 65.0577 60.1929 64.437C60.2845 64.578 60.3832 64.719 60.489 64.8529C61.0555 65.5737 61.7756 66.159 62.5969 66.5661C63.4713 66.9904 64.4309 67.2098 65.4028 67.2076C66.9949 67.2195 68.5311 66.6217 69.6963 65.5368C69.9958 65.2579 70.2651 64.9483 70.5 64.6132C70.7349 64.9483 71.0042 65.2579 71.3037 65.5368C72.4689 66.6217 74.0051 67.2195 75.5972 67.2076C76.5691 67.2098 77.5287 66.9904 78.403 66.5661C79.2244 66.159 79.9445 65.5737 80.511 64.8529C80.6167 64.719 80.7154 64.578 80.8071 64.437C81.1856 65.0577 81.6813 65.5989 82.2664 66.0303C83.0544 66.6025 83.9667 66.98 84.9286 67.132C85.8905 67.2839 86.8747 67.206 87.8007 66.9045Z" fill="#02518C"/>
<path d="M87.8007 66.9045V62.8578C87.1814 63.0588 86.5342 63.1612 85.8831 63.1609C84.583 63.1631 83.3161 62.7507 82.2664 61.9836C81.6813 61.5522 81.1856 61.011 80.8071 60.3903C80.7154 60.5313 80.6167 60.6723 80.511 60.8062C79.9445 61.527 79.2244 62.1123 78.403 62.5194C77.5287 62.9437 76.5691 63.1631 75.5972 63.1609C74.0051 63.1728 72.4689 62.575 71.3037 61.4901C71.0061 61.212 70.7368 60.905 70.5 60.5736C70.2632 60.905 69.9939 61.212 69.6963 61.4901C68.5311 62.575 66.9949 63.1728 65.4028 63.1609C64.4309 63.1631 63.4713 62.9437 62.5969 62.5194C61.7756 62.1123 61.0555 61.527 60.489 60.8062C60.3832 60.6723 60.2845 60.5313 60.1929 60.3903C59.8144 61.011 59.3187 61.5522 58.7335 61.9836C57.6839 62.7507 56.417 63.1631 55.1169 63.1609C54.4657 63.1612 53.8186 63.0588 53.1993 62.8578V66.9045C54.1253 67.206 55.1095 67.2839 56.0714 67.132C57.0333 66.98 57.9456 66.6025 58.7335 66.0303C59.3187 65.5989 59.8144 65.0577 60.1929 64.437C60.2845 64.578 60.3832 64.719 60.489 64.8529C61.0555 65.5737 61.7756 66.159 62.5969 66.5661C63.4713 66.9904 64.4309 67.2098 65.4028 67.2076C66.9949 67.2195 68.5311 66.6217 69.6963 65.5368C69.9958 65.2579 70.2651 64.9483 70.5 64.6132C70.7349 64.9483 71.0042 65.2579 71.3037 65.5368C72.4689 66.6217 74.0051 67.2195 75.5972 67.2076C76.5691 67.2098 77.5287 66.9904 78.403 66.5661C79.2244 66.159 79.9445 65.5737 80.511 64.8529C80.6167 64.719 80.7154 64.578 80.8071 64.437C81.1856 65.0577 81.6813 65.5989 82.2664 66.0303C83.0544 66.6025 83.9667 66.98 84.9286 67.132C85.8905 67.2839 86.8747 67.206 87.8007 66.9045Z" fill="#02518C"/>
<path d="M87.8007 64.2255V60.1788C87.1814 60.3799 86.5342 60.4822 85.8831 60.482C84.5823 60.4816 83.3155 60.0667 82.2664 59.2976C81.6815 58.8687 81.1858 58.3299 80.8071 57.7113C80.7154 57.8523 80.6167 57.9933 80.511 58.1273C79.9462 58.8478 79.2255 59.4311 78.403 59.8334C77.5303 60.2632 76.57 60.4852 75.5972 60.482C74.0051 60.4939 72.4689 59.896 71.3037 58.8111C71.0042 58.5322 70.7349 58.2227 70.5 57.8876C70.2651 58.2227 69.9958 58.5322 69.6963 58.8111C68.5311 59.896 66.9949 60.4939 65.4028 60.482C64.4309 60.4841 63.4713 60.2647 62.5969 59.8404C61.7756 59.4333 61.0555 58.848 60.489 58.1273C60.3832 57.9933 60.2845 57.8523 60.1929 57.7113C59.8142 58.3299 59.3185 58.8687 58.7335 59.2976C57.6845 60.0667 56.4177 60.4816 55.1169 60.482C54.4657 60.4822 53.8186 60.3799 53.1993 60.1788V64.2255C53.8186 64.4266 54.4657 64.5289 55.1169 64.5287C56.4177 64.5283 57.6845 64.1134 58.7335 63.3443C59.3169 62.9136 59.8122 62.3751 60.1929 61.758C60.2845 61.899 60.3832 62.04 60.489 62.174C61.0538 62.8945 61.7745 63.4778 62.5969 63.8801C63.746 64.4428 65.0379 64.6462 66.3043 64.4639C67.5707 64.2816 68.7527 63.7219 69.6963 62.8578C69.9958 62.5789 70.2651 62.2694 70.5 61.9343C70.7349 62.2694 71.0042 62.5789 71.3037 62.8578C72.2473 63.7219 73.4293 64.2816 74.6957 64.4639C75.9621 64.6462 77.254 64.4428 78.403 63.8801C79.2255 63.4778 79.9462 62.8945 80.511 62.174C80.6167 62.04 80.7154 61.899 80.8071 61.758C81.1877 62.3751 81.6831 62.9136 82.2664 63.3443C83.3155 64.1134 84.5823 64.5283 85.8831 64.5287C86.5342 64.5289 87.1814 64.4266 87.8007 64.2255Z" fill="#02518C"/>
<path d="M87.8007 64.2255V60.1788C87.1814 60.3799 86.5342 60.4822 85.8831 60.482C84.5823 60.4816 83.3155 60.0667 82.2664 59.2976C81.6815 58.8687 81.1858 58.3299 80.8071 57.7113C80.7154 57.8523 80.6167 57.9933 80.511 58.1273C79.9462 58.8478 79.2255 59.4311 78.403 59.8334C77.5303 60.2632 76.57 60.4852 75.5972 60.482C74.0051 60.4939 72.4689 59.896 71.3037 58.8111C71.0042 58.5322 70.7349 58.2227 70.5 57.8876C70.2651 58.2227 69.9958 58.5322 69.6963 58.8111C68.5311 59.896 66.9949 60.4939 65.4028 60.482C64.4309 60.4841 63.4713 60.2647 62.5969 59.8404C61.7756 59.4333 61.0555 58.848 60.489 58.1273C60.3832 57.9933 60.2845 57.8523 60.1929 57.7113C59.8142 58.3299 59.3185 58.8687 58.7335 59.2976C57.6845 60.0667 56.4177 60.4816 55.1169 60.482C54.4657 60.4822 53.8186 60.3799 53.1993 60.1788V64.2255C53.8186 64.4266 54.4657 64.5289 55.1169 64.5287C56.4177 64.5283 57.6845 64.1134 58.7335 63.3443C59.3169 62.9136 59.8122 62.3751 60.1929 61.758C60.2845 61.899 60.3832 62.04 60.489 62.174C61.0538 62.8945 61.7745 63.4778 62.5969 63.8801C63.746 64.4428 65.0379 64.6462 66.3043 64.4639C67.5707 64.2816 68.7527 63.7219 69.6963 62.8578C69.9958 62.5789 70.2651 62.2694 70.5 61.9343C70.7349 62.2694 71.0042 62.5789 71.3037 62.8578C72.2473 63.7219 73.4293 64.2816 74.6957 64.4639C75.9621 64.6462 77.254 64.4428 78.403 63.8801C79.2255 63.4778 79.9462 62.8945 80.511 62.174C80.6167 62.04 80.7154 61.899 80.8071 61.758C81.1877 62.3751 81.6831 62.9136 82.2664 63.3443C83.3155 64.1134 84.5823 64.5283 85.8831 64.5287C86.5342 64.5289 87.1814 64.4266 87.8007 64.2255Z" fill="#2970EF"/>
<path d="M55.1169 63.3302C54.069 63.3333 53.0377 63.0688 52.1206 62.5617C51.2672 62.0811 50.5493 61.3923 50.0338 60.5595C49.5694 59.8052 49.2982 58.948 49.2442 58.0638C49.1906 57.1267 49.3877 56.1922 49.8153 55.3566L56.8371 41.5175C57.4547 40.307 58.4065 39.2989 59.5795 38.6129C60.7704 37.908 62.1296 37.5377 63.5134 37.5413H64.9869C65.1413 37.5406 65.2937 37.5754 65.4325 37.643C65.5713 37.7106 65.6927 37.8091 65.7874 37.9311C65.8821 38.053 65.9475 38.195 65.9786 38.3463C66.0097 38.4975 66.0057 38.6538 65.9668 38.8032L60.8274 59.0649C60.5047 60.3041 59.7653 61.3944 58.7335 62.1528C57.6839 62.9199 56.417 63.3323 55.1169 63.3302Z" fill="#F4C23F"/>
<path d="M65.4029 63.3301C64.431 63.3323 63.4713 63.1129 62.597 62.6886C61.7741 62.2839 61.0534 61.6982 60.489 60.9754C59.9641 60.3115 59.5989 59.5357 59.4217 58.7081C59.2444 57.8806 59.2599 57.0233 59.4668 56.2026L64.007 38.3026C64.062 38.0846 64.1883 37.8913 64.3659 37.7533C64.5435 37.6153 64.762 37.5407 64.9869 37.5412H70.5C70.633 37.5412 70.7647 37.5676 70.8874 37.6187C71.0102 37.6698 71.1217 37.7447 71.2154 37.839C71.3091 37.9334 71.3832 38.0454 71.4334 38.1685C71.4837 38.2916 71.5091 38.4235 71.5082 38.5564V57.5491C71.5082 59.1072 70.8666 60.5665 69.6963 61.6593C68.5311 62.7442 66.9949 63.342 65.4029 63.3301Z" fill="#F4C23F"/>
<path d="M75.5971 63.3301C74.0051 63.342 72.4689 62.7442 71.3037 61.6593C70.1334 60.5665 69.4918 59.1072 69.4918 57.5491V38.5564C69.4909 38.4235 69.5163 38.2916 69.5666 38.1685C69.6168 38.0454 69.6909 37.9334 69.7846 37.839C69.8783 37.7447 69.9898 37.6698 70.1126 37.6187C70.2353 37.5676 70.367 37.5412 70.5 37.5412H76.0131C76.238 37.5407 76.4565 37.6153 76.6341 37.7533C76.8117 37.8913 76.938 38.0846 76.993 38.3026L81.5332 56.2026C81.7401 57.0233 81.7556 57.8806 81.5783 58.7081C81.4011 59.5357 81.0359 60.3115 80.511 60.9754C79.9466 61.6982 79.226 62.2839 78.403 62.6886C77.5287 63.1129 76.5691 63.3323 75.5971 63.3301Z" fill="#F4C23F"/>
<path d="M85.8831 63.3302C84.583 63.3323 83.3161 62.9199 82.2664 62.1528C81.2347 61.3944 80.4953 60.3041 80.1726 59.0649L75.0331 38.8032C74.9943 38.6538 74.9902 38.4975 75.0213 38.3463C75.0525 38.195 75.1179 38.053 75.2126 37.9311C75.3072 37.8091 75.4287 37.7106 75.5675 37.643C75.7063 37.5754 75.8587 37.5406 76.0131 37.5413H77.4865C78.8704 37.5377 80.2296 37.908 81.4204 38.6129C82.5935 39.2989 83.5453 40.307 84.1629 41.5175L91.1847 55.3566C91.6123 56.1922 91.8094 57.1267 91.7557 58.0638C91.7018 58.948 91.4306 59.8052 90.9661 60.5595C90.4507 61.3923 89.7328 62.0811 88.8793 62.5617C87.9623 63.0688 86.931 63.3333 85.8831 63.3302Z" fill="#F4C23F"/>
<path d="M70.5 70.4013C71.9622 70.4013 73.3645 70.9822 74.3984 72.0161C75.4323 73.05 76.0131 74.4522 76.0131 75.9144V83.2746H64.9869V75.9144C64.9869 74.4522 65.5677 73.05 66.6017 72.0161C67.6356 70.9822 69.0378 70.4013 70.5 70.4013Z" fill="white"/>
<path d="M71.8536 69.3931C70.8874 69.3922 69.9305 69.5817 69.0375 69.9508C68.1446 70.32 67.3331 70.8614 66.6496 71.5443C65.966 72.2272 65.4238 73.0381 65.0538 73.9307C64.6838 74.8233 64.4934 75.7801 64.4934 76.7463V84.2898H77.9378C78.105 84.2898 78.2706 84.2567 78.425 84.1925C78.5794 84.1283 78.7197 84.0342 78.8376 83.9156C78.9555 83.797 79.0488 83.6563 79.1122 83.5015C79.1756 83.3468 79.2077 83.181 79.2068 83.0137V76.7463C79.2086 75.7801 79.0197 74.8231 78.6508 73.9302C78.2819 73.0372 77.7404 72.2259 77.0572 71.5427C76.374 70.8595 75.5627 70.318 74.6697 69.9491C73.7768 69.5802 72.8198 69.3913 71.8536 69.3931Z" fill="#02518C"/>
<path d="M76.0131 84.2898H64.9869C64.7182 84.288 64.4611 84.1804 64.2711 83.9904C64.0811 83.8004 63.9736 83.5433 63.9717 83.2746V75.9144C63.9717 74.183 64.6595 72.5225 65.8838 71.2982C67.1081 70.0739 68.7686 69.3861 70.5 69.3861C72.2314 69.3861 73.8919 70.0739 75.1162 71.2982C76.3405 72.5225 77.0283 74.183 77.0283 75.9144V83.2746C77.0265 83.5433 76.9189 83.8004 76.7289 83.9904C76.5389 84.1804 76.2818 84.288 76.0131 84.2898Z" fill="#2E2C50"/>
<path d="M68.0325 83.2746V75.9144C68.0295 75.0576 68.1969 74.2088 68.5249 73.4173C68.8529 72.6257 69.335 71.9073 69.9431 71.3037C70.665 70.5724 71.5525 70.0259 72.5304 69.7104C71.5502 69.3913 70.5085 69.3085 69.4902 69.4689C68.4719 69.6293 67.5061 70.0283 66.6714 70.6332C65.8368 71.2382 65.1572 72.0321 64.688 72.9499C64.2188 73.8678 63.9733 74.8836 63.9717 75.9144V83.2746C63.9736 83.5433 64.0811 83.8004 64.2711 83.9904C64.4611 84.1804 64.7182 84.288 64.9869 84.2898H69.0407C68.7726 84.2879 68.5162 84.1802 68.3274 83.99C68.1385 83.7998 68.0325 83.5426 68.0325 83.2746Z" fill="#1D1F2D"/>
<path d="M85.2687 43.7156C84.6298 42.4287 83.0701 41.9026 81.785 42.5406C80.4998 43.1785 79.9758 44.739 80.6147 46.0259L82.6077 50.0408C83.2465 51.3277 84.8062 51.8538 86.0914 51.2158C87.3766 50.5778 87.9005 49.0174 87.2617 47.7305L85.2687 43.7156Z" fill="#FAD564"/>
<path d="M78.223 51.5371C77.9613 50.4467 76.8651 49.775 75.7747 50.0367C74.6844 50.2985 74.0127 51.3947 74.2744 52.485L74.8626 54.9351C75.1244 56.0255 76.2206 56.6972 77.3109 56.4354C78.4013 56.1736 79.073 55.0775 78.8112 53.9871L78.223 51.5371Z" fill="#FAD564"/>
<path d="M69.4636 44.3586C69.4636 43.2372 68.5546 42.3282 67.4332 42.3282C66.3119 42.3282 65.4028 43.2372 65.4028 44.3586V47.2963C65.4028 48.4177 66.3119 49.3267 67.4332 49.3267C68.5546 49.3267 69.4636 48.4177 69.4636 47.2963V44.3586Z" fill="#FAD564"/>
<path d="M91.361 55.7444C91.2492 56.0125 91.1172 56.2717 90.9662 56.5199C90.4483 57.349 89.7309 58.0349 88.8793 58.515C87.8519 59.0813 86.6845 59.3435 85.5135 59.2711C84.3425 59.1987 83.2164 58.7946 82.2665 58.1061H82.2523C81.6865 57.6812 81.2853 57.0733 81.1173 56.3859L77.2821 41.2073C77.2176 40.9487 77.2106 40.6791 77.2614 40.4175C77.3122 40.156 77.4196 39.9086 77.5761 39.693C77.7327 39.4773 77.9345 39.2985 78.1675 39.1692C78.4005 39.0398 78.6589 38.963 78.9248 38.9442C80.0528 38.8667 81.5615 39.0782 83.2535 40.1568C82.7313 39.547 82.112 39.0277 81.4205 38.6199C80.2296 37.915 78.8704 37.5448 77.4866 37.5483H63.5135C62.1296 37.5448 60.7704 37.915 59.5795 38.6199C58.4065 39.306 57.4547 40.314 56.8371 41.5245L49.8153 55.3566C49.6867 55.6158 49.5783 55.8845 49.491 56.1603C49.4885 56.1632 49.4865 56.1665 49.4853 56.1702C49.4841 56.1738 49.4836 56.1776 49.484 56.1815C49.4714 56.2109 49.4619 56.2417 49.4558 56.2731C49.4468 56.288 49.4419 56.3051 49.4417 56.3225C49.4346 56.3366 49.4346 56.3507 49.4276 56.3648C49.2721 56.9169 49.2101 57.4912 49.2443 58.0638C49.2982 58.948 49.5694 59.8052 50.0339 60.5595C50.5493 61.3923 51.2672 62.0811 52.1207 62.5617C53.1481 63.128 54.3155 63.3902 55.4865 63.3178C56.6575 63.2454 57.7836 62.8413 58.7336 62.1528C59.3169 61.7221 59.8122 61.1837 60.1929 60.5666C60.2846 60.7076 60.3833 60.8415 60.489 60.9755C61.0534 61.6982 61.774 62.2839 62.597 62.6886C63.4713 63.1129 64.431 63.3323 65.4029 63.3302C66.9949 63.3421 68.5311 62.7442 69.6963 61.6593C69.9939 61.3812 70.2632 61.0742 70.5 60.7428C70.7368 61.0742 71.0061 61.3812 71.3037 61.6593C72.4689 62.7442 74.0051 63.3421 75.5972 63.3302C76.5691 63.3323 77.5287 63.1129 78.4031 62.6886C79.226 62.2839 79.9466 61.6982 80.511 60.9755C80.6168 60.8415 80.7154 60.7076 80.8071 60.5666C81.1878 61.1837 81.6831 61.7221 82.2665 62.1528C83.2164 62.8413 84.3425 63.2454 85.5135 63.3178C86.6845 63.3902 87.8519 63.128 88.8793 62.5617C89.7328 62.0811 90.4507 61.3923 90.9662 60.5595C91.4306 59.8052 91.7018 58.948 91.7558 58.0638C91.8005 57.2708 91.6656 56.4779 91.361 55.7444ZM59.4668 56.2026L59.4245 56.3295C59.1838 57.0704 58.7476 57.7326 58.1619 58.2463C57.5763 58.76 56.8628 59.1062 56.0969 59.2482C55.7738 59.3091 55.4435 59.321 55.1169 59.2835C54.069 59.2866 53.0377 59.022 52.1207 58.515C51.9226 58.4052 51.7319 58.2828 51.5496 58.1484C51.2739 57.9488 51.0775 57.6584 50.995 57.3283C50.9125 56.9981 50.9491 56.6494 51.0984 56.3436H51.1055L58.1273 42.4974C58.7468 41.2883 59.6981 40.2807 60.8697 39.5928L60.8979 39.5787C62.1105 38.8667 63.584 39.9806 63.2385 41.3412L59.4668 56.2026ZM66.4181 59.2059C66.0824 59.2603 65.7428 59.2862 65.4029 59.2835C64.4306 59.2892 63.4702 59.0696 62.597 58.6419H62.5758C62.0235 58.3653 61.582 57.9085 61.3244 57.3471C61.0667 56.7857 61.0083 56.1531 61.1588 55.554L64.7472 41.165C64.9358 40.4101 65.3713 39.7399 65.9844 39.2609C66.5975 38.7819 67.3532 38.5216 68.1312 38.5212C68.4909 38.5212 68.8359 38.6636 69.0908 38.9172C69.3458 39.1709 69.49 39.5152 69.4919 39.8748V55.5752C69.4978 56.4478 69.1911 57.2937 68.6272 57.9597C68.0634 58.6257 67.2797 59.0678 66.4181 59.2059ZM75.5972 59.2835C74.0051 59.2954 72.4689 58.6975 71.3037 57.6126H71.2967C71.1312 57.457 70.9996 57.2691 70.9098 57.0605C70.8201 56.8519 70.7742 56.6271 70.775 56.4V42.5468C70.6481 39.6633 72.4388 38.8667 73.736 38.7116C74.0788 38.6704 74.4249 38.7559 74.7092 38.9519C74.9935 39.1479 75.1965 39.441 75.2799 39.7761L79.4747 56.3225C79.5894 56.7707 79.5469 57.2447 79.3545 57.6655C79.1621 58.0863 78.8313 58.4284 78.4172 58.6349H78.4031C77.5304 59.0649 76.57 59.287 75.5972 59.2835Z" fill="#F4A93F"/>
<path d="M87.8007 78.8825V69.5342C87.4506 69.4607 87.0939 69.4229 86.7362 69.4214C85.4011 69.4214 84.1208 69.9517 83.1768 70.8957C82.2328 71.8397 81.7024 73.12 81.7024 74.4551V82.9151C81.7009 83.38 81.765 83.8428 81.8928 84.2898H82.4004C83.8333 84.2879 85.2069 83.7174 86.2194 82.7035C87.232 81.6897 87.8007 80.3154 87.8007 78.8825Z" fill="#83D0FB"/>
<path d="M61.5336 47.9308C61.6766 47.4008 61.3644 46.8556 60.8362 46.7131C60.3081 46.5705 59.764 46.8847 59.6209 47.4147L58.9085 50.055C58.7655 50.5851 59.0777 51.1303 59.6059 51.2728C60.1341 51.4153 60.6782 51.1011 60.8212 50.5711L61.5336 47.9308Z" fill="#FAD564"/>
<path d="M62.5687 60.3903C61.7896 60.3876 61.0131 60.4799 60.2563 60.6653L60.489 60.9755C61.0534 61.6982 61.774 62.2839 62.5969 62.6886C63.4713 63.1129 64.4309 63.3323 65.4028 63.3302C66.2782 63.3343 67.1448 63.1566 67.9479 62.8085C67.5319 61.4408 65.283 60.3903 62.5687 60.3903Z" fill="#F8881B"/>
<path d="M55.1169 63.3302C56.2069 63.3298 57.2773 63.0403 58.2189 62.4912C57.253 61.4267 55.6104 60.4749 53.6223 59.9321C52.1629 59.5373 50.7459 59.4315 49.5544 59.5725C49.6812 59.9165 49.8418 60.2472 50.0338 60.5595C50.5493 61.3923 51.2672 62.0811 52.1206 62.5617C53.0377 63.0688 54.069 63.3333 55.1169 63.3302Z" fill="#F8881B"/>
<path d="M101.323 30.5406C84.2968 13.5219 56.7031 13.5219 39.6774 30.5406C23.6527 46.5723 22.5811 72.2132 37.231 89.5209L63.3724 120.414C67.1019 124.82 73.8981 124.82 77.6275 120.414L103.769 89.5209C118.419 72.2132 117.347 46.5723 101.323 30.5406ZM70.5 94.1105C51.4015 94.1105 35.9127 78.6287 35.9127 59.5232C35.9127 40.4177 51.4015 24.9429 70.5 24.9429C89.5984 24.9429 105.087 40.4247 105.087 59.5232C105.087 78.6216 89.5984 94.1105 70.5 94.1105Z" fill="#02518C"/>
<path d="M101.323 30.5406C87.1732 16.3983 65.7201 14.0084 49.1032 23.3778L48.9693 23.54C46.2762 26.7689 50.055 31.3161 53.728 29.2716C58.8592 26.4248 64.6321 24.9349 70.5 24.9429C89.5984 24.9429 105.087 40.4247 105.087 59.5232C105.089 61.2411 104.962 62.9567 104.707 64.6556C103.931 69.8726 110.995 72.2343 113.54 67.6166C113.583 67.532 113.632 67.4544 113.674 67.3769C115.486 54.2639 111.312 40.5375 101.323 30.5406Z" fill="#02518C"/>
<path d="M71.0429 117.806L41.3624 82.7318C32.2749 72.0017 28.5173 58.4445 29.9414 45.3809C24.2309 59.8968 26.5644 76.9155 37.231 89.5209L63.3725 120.414C66.834 124.503 72.9323 124.792 76.7745 121.295C74.5342 120.789 72.5212 119.563 71.0429 117.806Z" fill="#02518C"/>
<path d="M83.0278 125.687H49.6108C49.0873 125.687 48.5852 125.479 48.215 125.109C47.8448 124.739 47.6368 124.237 47.6368 123.713C47.6368 123.19 47.8448 122.688 48.215 122.318C48.5852 121.947 49.0873 121.739 49.6108 121.739H83.0278C83.5514 121.739 84.0535 121.947 84.4237 122.318C84.7939 122.688 85.0018 123.19 85.0018 123.713C85.0018 124.237 84.7939 124.739 84.4237 125.109C84.0535 125.479 83.5514 125.687 83.0278 125.687Z" fill="#02518C"/>
<path d="M105.567 125.687H93.1798C92.6563 125.687 92.1542 125.479 91.784 125.109C91.4138 124.739 91.2058 124.237 91.2058 123.713C91.2058 123.19 91.4138 122.688 91.784 122.318C92.1542 121.947 92.6563 121.739 93.1798 121.739H105.567C106.09 121.739 106.592 121.947 106.963 122.318C107.333 122.688 107.541 123.19 107.541 123.713C107.541 124.237 107.333 124.739 106.963 125.109C106.592 125.479 106.09 125.687 105.567 125.687Z" fill="#02518C"/>
<path d="M37.4355 125.687H32.1691C31.6456 125.687 31.1435 125.479 30.7733 125.109C30.4031 124.739 30.1951 124.237 30.1951 123.713C30.1951 123.19 30.4031 122.688 30.7733 122.318C31.1435 121.947 31.6456 121.739 32.1691 121.739H37.4355C37.959 121.739 38.4611 121.947 38.8313 122.318C39.2015 122.688 39.4095 123.19 39.4095 123.713C39.4095 124.237 39.2015 124.739 38.8313 125.109C38.4611 125.479 37.959 125.687 37.4355 125.687Z" fill="#02518C"/>
<path d="M35.7381 137.206C35.6576 136.908 35.5392 136.645 35.383 136.418C35.2267 136.186 35.035 135.989 34.8077 135.828C34.5804 135.667 34.32 135.546 34.0265 135.466C33.7329 135.381 33.4109 135.338 33.0605 135.338C32.3551 135.338 31.7443 135.509 31.2282 135.849C30.7168 136.19 30.3214 136.687 30.0421 137.341C29.7627 137.99 29.623 138.778 29.623 139.706C29.623 140.639 29.758 141.434 30.0279 142.092C30.2978 142.75 30.6884 143.252 31.1998 143.598C31.7111 143.944 32.3314 144.116 33.0605 144.116C33.7045 144.116 34.249 144.012 34.6941 143.804C35.1439 143.591 35.4848 143.29 35.7168 142.902C35.9488 142.514 36.0648 142.057 36.0648 141.531L36.7182 141.609H33.1813V139.045H39.4526V140.97C39.4526 142.272 39.1756 143.387 38.6216 144.315C38.0724 145.243 37.3148 145.956 36.3489 146.453C35.3877 146.95 34.2821 147.199 33.0321 147.199C31.6448 147.199 30.4256 146.898 29.3745 146.297C28.3233 145.696 27.5042 144.839 26.9171 143.726C26.33 142.608 26.0364 141.283 26.0364 139.749C26.0364 138.555 26.214 137.497 26.5691 136.574C26.9242 135.646 27.419 134.86 28.0534 134.216C28.6926 133.572 29.4313 133.084 30.2694 132.753C31.1122 132.421 32.0189 132.256 32.9895 132.256C33.8323 132.256 34.6159 132.376 35.3404 132.618C36.0695 132.859 36.7135 133.2 37.2722 133.641C37.8356 134.081 38.2926 134.604 38.6429 135.21C38.9933 135.816 39.2111 136.482 39.2963 137.206H35.7381ZM41.5247 147V132.455H51.6667V135.31H45.0403V138.293H51.1483V141.155H45.0403V144.145H51.6667V147H41.5247ZM67.5971 139.727C67.5971 141.328 67.2894 142.684 66.6738 143.797C66.0583 144.91 65.225 145.755 64.1738 146.332C63.1274 146.91 61.9532 147.199 60.6511 147.199C59.3443 147.199 58.1677 146.908 57.1213 146.325C56.0749 145.743 55.2439 144.898 54.6284 143.79C54.0176 142.677 53.7122 141.323 53.7122 139.727C53.7122 138.127 54.0176 136.77 54.6284 135.658C55.2439 134.545 56.0749 133.7 57.1213 133.122C58.1677 132.545 59.3443 132.256 60.6511 132.256C61.9532 132.256 63.1274 132.545 64.1738 133.122C65.225 133.7 66.0583 134.545 66.6738 135.658C67.2894 136.77 67.5971 138.127 67.5971 139.727ZM64.0034 139.727C64.0034 138.78 63.8684 137.98 63.5985 137.327C63.3334 136.673 62.9499 136.179 62.448 135.842C61.9508 135.506 61.3519 135.338 60.6511 135.338C59.9551 135.338 59.3561 135.506 58.8542 135.842C58.3523 136.179 57.9664 136.673 57.6966 137.327C57.4314 137.98 57.2988 138.78 57.2988 139.727C57.2988 140.674 57.4314 141.474 57.6966 142.128C57.9664 142.781 58.3523 143.276 58.8542 143.612C59.3561 143.948 59.9551 144.116 60.6511 144.116C61.3519 144.116 61.9508 143.948 62.448 143.612C62.9499 143.276 63.3334 142.781 63.5985 142.128C63.8684 141.474 64.0034 140.674 64.0034 139.727ZM79.323 147H73.9466V132.455H79.3159C80.7979 132.455 82.0739 132.746 83.144 133.328C84.2188 133.906 85.0474 134.739 85.6298 135.828C86.2122 136.912 86.5034 138.21 86.5034 139.72C86.5034 141.235 86.2122 142.537 85.6298 143.626C85.0521 144.715 84.2259 145.551 83.1511 146.134C82.0763 146.711 80.8002 147 79.323 147ZM77.4622 144.003H79.188C80.0024 144.003 80.6913 143.866 81.2548 143.591C81.823 143.312 82.2515 142.859 82.5403 142.234C82.8339 141.605 82.9806 140.767 82.9806 139.72C82.9806 138.674 82.8339 137.84 82.5403 137.22C82.2467 136.595 81.8135 136.145 81.2406 135.871C80.6724 135.591 79.9717 135.452 79.1383 135.452H77.4622V144.003ZM92.0716 132.455V147H88.5559V132.455H92.0716ZM94.2786 147V132.455H97.7942V144.145H103.845V147H94.2786ZM105.665 147V132.455H115.807V135.31H109.181V138.293H115.289V141.155H109.181V144.145H115.807V147H105.665Z" fill="#02518C"/>
</svg>
